#!OML:ASF H:\Male1\Project 1\Capture day 1\Session 1\Male1.ASF
:FULLY-SPECIFIED
:DEGREES
474
root 36.5362 15.4165 -0.319266 -813.11 -86.4884 811.396
lowerback 6.53407 0.739108 -5.49351
upperback 4.92464 0.541402 -2.51481
thorax 1.40157 0.0894786 0.45334
lowerneck -9.295 7.23152 10.375
upperneck 24.8871 8.40823 -3.21874
head 10.0565 4.3199 -1.90801
rclavicle -2.08724e-015 1.51076e-014
rhumerus -35.7612 -3.68635 -86.4651
rradius 33.2008
rwrist -19.9433
rhand -17.2595 0.377283
rfingers 7.12502
rthumb 8.98496 -29.4114
lclavicle -2.08724e-015 1.51076e-014
lhumerus -27.6282 -13.7686 88.5089
lradius 35.3206
lwrist 2.05174
lhand -19.7276 16.0984
lfingers 7.12502
lthumb 6.60277 45.9755
rfemur -21.5953 13.5999 12.7901
rtibia 29.7782
rfoot -23.6286 -29.2732
rtoes -6.98027
lfemur 22.1394 -12.8682 -26.8262
ltibia -3.18055e-014
lfoot -12.0303 20.3318
ltoes -9.98759
475
root 36.7336 15.4131 -0.243992 -817.63 -86.3517 816.056
lowerback 6.69649 0.843319 -5.74531
upperback 4.87266 0.648163 -2.59119
thorax 1.25215 0.140162 0.507439
lowerneck -9.41664 7.00339 10.0504
upperneck 24.8821 8.02415 -2.7812
head 10.013 4.15737 -1.7489
rclavicle 9.93923e-017 2.94201e-014
rhumerus -35.87 -3.80882 -86.566
rradius 33.2623
rwrist -20.1047
rhand -17.2092 0.610989
rfingers 7.12502
rthumb 9.0335 -29.1756
lclavicle 9.93923e-017 2.94201e-014
lhumerus -27.4713 -14.5448 88.6984
lradius 35.3691
lwrist 2.19337
lhand -19.878 16.5487
lfingers 7.12502
lthumb 6.45761 46.4303
rfemur -22.1006 13.6883 12.2434
rtibia 29.2273
rfoot -24.9028 -29.4864
rtoes -10.7993
lfemur 21.299 -13.0511 -27.2723
ltibia 3.18055e-014
lfoot -13.1037 20.9628
ltoes -7.3977
476
root 36.9291 15.4163 -0.176559 -819.604 -86.4629 818.135
lowerback 6.92738 0.894268 -5.79778
upperback 4.81778 0.69109 -2.5667
thorax 1.06439 0.165045 0.557336
lowerneck -9.57425 6.77209 9.74141
upperneck 24.9462 7.64189 -2.39346
head 10.0075 3.9916 -1.60785
rclavicle -6.06293e-015 7.15625e-015
rhumerus -36.0298 -3.83616 -86.65
rradius 33.3531
rwrist -20.2198
rhand -17.3901 0.556307
rfingers 7.12502
rthumb 8.85891 -29.2377
lclavicle -6.06293e-015 7.15625e-015
lhumerus -27.4082 -15.5043 88.9997
lradius 35.2901
lwrist 2.94144
lhand -18.8843 18.3051
lfingers 7.12502
lthumb 7.41681 48.1551
rfemur -22.4205 13.7176 12.043
rtibia 28.7523
rfoot -27.2596 -29.8913
rtoes -10.3126
lfemur 20.4664 -13.459 -27.3884
ltibia 2.8625e-014
lfoot -13.9852 21.4653
ltoes -7.6533
477
root 37.1167 15.4241 -0.116429 -822.33 -86.6743 820.953
lowerback 6.9834 0.949409 -5.79031
upperback 4.85929 0.761675 -2.48057
thorax 1.07178 0.198226 0.637286
lowerneck -9.93579 6.47386 9.28181
upperneck 25.0986 7.14506 -1.87924
head 10.0565 3.77223 -1.40585
rclavicle 7.7526e-015 -3.18055e-015
rhumerus -36.0065 -3.76386 -86.7375
rradius 33.3619
rwrist -20.2701
rhand -17.654 0.532079
rfingers 7.12502
rthumb 8.60422 -29.2726
lclavicle 7.7526e-015 -3.18055e-015
lhumerus -27.3474 -16.7264 89.4623
lradius 35.1838
lwrist 4.9831
lhand -15.4635 22.8055
lfingers 7.12502
lthumb 10.7176 52.5122
rfemur -22.6862 13.8901 12.0691
rtibia 28.4341
rfoot -30.0275 -30.8253
rtoes -7.15653
lfemur 19.6799 -13.8689 -27.3487
ltibia -9.22361e-014
lfoot -14.4803 22.0278
ltoes -7.88774
478
root 37.3004 15.4368 -0.0604129 -828.972 -86.9919 827.54
lowerback 7.10268 1.09813 -5.65934
upperback 4.96661 0.959928 -2.31365
thorax 1.10528 0.294691 0.723297
lowerneck -10.2066 6.11218 8.89364
upperneck 25.0744 6.59585 -1.49974
head 10.0341 3.52317 -1.27256
rclavicle 4.67144e-015 -2.70347e-014
rhumerus -35.8905 -3.84397 -86.6707
rradius 33.2026
rwrist -20.2265
rhand -17.6897 0.650779
rfingers 7.12502
rthumb 8.56976 -29.1553
lclavicle 4.67144e-015 -2.70347e-014
lhumerus -26.969 -16.7081 89.3507
lradius 35.1818
lwrist 2.96276
lhand -19.3949 18.2697
lfingers 7.12502
lthumb 6.92395 48.1365
rfemur -22.7817 14.0573 12.411
rtibia 28.2967
rfoot -33.135 -31.5754
rtoes -2.93906
lfemur 19.0753 -14.1262 -27.1623
ltibia -7.31528e-014
lfoot -14.8894 22.6706
ltoes -7.39359
479
root 37.4744 15.4557 -0.00887878 -838.19 -87.1402 836.836
lowerback 6.98649 1.2202 -5.58294
upperback 5.01901 1.13878 -2.1891
thorax 1.21296 0.381329 0.800174
lowerneck -10.4468 5.82593 8.57734
upperneck 25.1244 6.14771 -1.15792
head 10.0476 3.32311 -1.1516
rclavicle -6.55989e-015 4.77083e-015
rhumerus -35.7747 -3.84693 -86.6123
rradius 32.9695
rwrist -20.1376
rhand -17.4507 0.643136
rfingers 7.12502
rthumb 8.80044 -29.1534
lclavicle -6.55989e-015 4.77083e-015
lhumerus -26.81 -16.7339 89.3043
lradius 35.1162
lwrist 2.27928
lhand -20.5936 16.5571
lfingers 7.12502
lthumb 5.76669 46.4586
rfemur -22.9603 13.5524 12.8377
rtibia 28.4358
rfoot -33.614 -31.9464
rtoes -2.77275
lfemur 18.3568 -14.2897 -27.0137
ltibia -3.18055e-015
lfoot -15.5281 23.2512
ltoes -5.45942
480
root 37.659 15.4748 0.0337241 -839.124 -87.1867 837.76
lowerback 7.23551 1.204 -5.71841
upperback 4.98484 1.08697 -2.17089
thorax 1.04057 0.355682 0.893647
lowerneck -10.5294 5.42594 8.08415
upperneck 25.2943 5.52535 -0.61294
head 10.0564 3.04612 -0.956381
rclavicle 6.36111e-015 -3.18055e-015
rhumerus -35.6332 -3.80474 -86.6436
rradius 32.6097
rwrist -20.0023
rhand -17.2598 0.443464
rfingers 7.12502
rthumb 8.98461 -29.3452
lclavicle 6.36111e-015 -3.18055e-015
lhumerus -26.9594 -16.9477 89.3454
lradius 34.9591
lwrist 3.08883
lhand -19.4754 17.8348
lfingers 7.12502
lthumb 6.84629 47.7041
rfemur -22.9574 12.0669 13.1972
rtibia 28.9467
rfoot -33.3275 -31.4758
rtoes -1.77478
lfemur 17.6821 -14.804 -27.1507
ltibia 5.725e-014
lfoot -15.9233 23.7885
ltoes -3.283
481
root 37.8297 15.4914 0.0705093 -842.643 -87.0888 841.286
lowerback 7.29334 1.20856 -5.91526
upperback 4.94245 1.07441 -2.18302
thorax 0.963271 0.347163 0.990395
lowerneck -10.6547 5.18213 7.77501
upperneck 25.5258 5.08995 -0.119944
head 10.1202 2.86747 -0.783411
rclavicle -2.98177e-015 -3.57812e-014
rhumerus -35.4232 -3.75362 -86.7025
rradius 32.0777
rwrist -19.7829
rhand -17.1224 0.393313
rfingers 7.12502
rthumb 9.11728 -29.3896
lclavicle -2.98177e-015 -3.57812e-014
lhumerus -27.4764 -17.3995 89.5502
lradius 34.9079
lwrist 5.36979
lhand -15.9392 23.0007
lfingers 7.12502
lthumb 10.2588 52.7305
rfemur -22.9016 10.1048 13.7205
rtibia 29.8505
rfoot -31.4446 -30.6863
rtoes -4.49555
lfemur 17.0853 -15.1493 -27.2912
ltibia -2.54444e-014
lfoot -16.1361 24.2238
ltoes -1.69347
482
root 38.0018 15.5078 0.100476 -843.571 -86.944 842.244
lowerback 7.29961 1.1788 -6.21859
upperback 4.91025 1.01397 -2.21435
thorax 0.927571 0.311238 1.13048
lowerneck -10.6377 4.81889 7.31918
upperneck 25.7752 4.52286 0.369711
head 10.1563 2.61241 -0.606944
rclavicle -1.59028e-015 -1.82882e-014
rhumerus -35.2001 -3.73606 -86.7389
rradius 31.5746
rwrist -19.455
rhand -16.9431 0.592773
rfingers 7.12502
rthumb 9.29029 -29.1825
lclavicle -1.59028e-015 -1.82882e-014
lhumerus -27.653 -16.4122 89.0299
lradius 34.888
lwrist 3.20735
lhand -18.0289 10.6662
lfingers 7.12502
lthumb 8.24242 40.4854
rfemur -22.804 7.86158 14.2325
rtibia 31.0724
rfoot -29.4366 -29.4465
rtoes -6.97296
lfemur 16.4192 -15.6031 -27.4457
ltibia 1.59028e-014
lfoot -15.9678 24.6333
ltoes -1.02555
483
root 38.1642 15.5218 0.125927 -849.964 -86.7555 848.569
lowerback 7.20737 1.23998 -6.33771
upperback 4.93264 1.09548 -2.22134
thorax 0.995473 0.346251 1.18547
lowerneck -10.6402 4.63748 7.15406
upperneck 26.0412 4.19971 0.659326
head 10.2309 2.47642 -0.516756
rclavicle 1.78906e-015 7.15625e-015
rhumerus -34.9865 -3.87067 -86.7179
rradius 31.1104
rwrist -18.8796
rhand -16.7329 0.69928
rfingers 7.12502
rthumb 9.49302 -29.0669
lclavicle 1.78906e-015 7.15625e-015
lhumerus -27.9111 -15.7975 88.677
lradius 34.7052
lwrist 2.49592
lhand -21.2502 14.3943
lfingers 7.12502
lthumb 5.13277 44.3122
rfemur -22.5466 5.84784 14.9711
rtibia 32.583
rfoot -27.4795 -28.1527
rtoes -10.4258
lfemur 13.9169 -15.8187 -27.414
ltibia 3.72002
lfoot -17.4857 24.911
ltoes -0.956829
484
root 38.3281 15.5295 0.145917 -860.413 -86.8135 858.938
lowerback 7.18478 1.27411 -6.01881
upperback 4.9079 1.16368 -2.12841
thorax 0.979558 0.389125 1.1
lowerneck -10.7758 4.26805 6.87086
upperneck 26.7661 3.53535 1.13832
head 10.4852 2.19238 -0.376885
rclavicle 6.55989e-015 2.22639e-014
rhumerus -34.8571 -4.02536 -86.6879
rradius 30.7176
rwrist -18.1419
rhand -16.6058 0.630089
rfingers 7.12502
rthumb 9.61573 -29.1305
lclavicle 6.55989e-015 2.22639e-014
lhumerus -28.2657 -15.5246 88.4731
lradius 34.3148
lwrist 2.71836
lhand -21.502 13.6695
lfingers 7.12502
lthumb 4.88965 43.5931
rfemur -22.1802 4.15271 16.1091
rtibia 34.3169
rfoot -26.1185 -27.0945
rtoes -13.2708
lfemur 11.4812 -16.0682 -26.9061
ltibia 7.32881
lfoot -19.0229 25.1152
ltoes -0.550349
